# xmcd CD database file
#
# Track frame offsets:
#	150
#	13133
#	24935
#	37346
#	53111
#	71172
#	90079
#	102557
#	126084
#	144293
#	159598
#	178037
#	192782
#	209462
#	225612
#	241965
#	261051
#	274616
#	290078
#	314075
#
# Disc length: 4344 seconds
#
# Revision: 0
# Processed by: cddbd v1.5.2PL0 Copyright (c) Steve Scherf et al.
# Submitted via: CDex 1.70beta2
#
DISCID=2410f614
DTITLE=Various Artist - salsa hits - 100% sabor latino
DYEAR=1900
DGENRE=Salsa
TTITLE0=Tropicana - Caramelo
TTITLE1=Sonora Matancera - Quien sera
TTITLE2=Celia Cruz - Ritmo de mi Cuba
TTITLE3=Juan Jose Rodriguez - Procuro olividarte
TTITLE4=Opa Opa - Dime por que
TTITLE5=Eddy Mclean - Torero
TTITLE6=Celia Cruz - Poco a poco
TTITLE7=Banda Ibanez - El venao
TTITLE8=Panama Connection - La bilirrubina
TTITLE9=Los Angeles de la Salsa - El baile de la bottella
TTITLE10=Panama Connection - Ojala que llueva cafe
TTITLE11=Juan Jose Rodrigues - Asi
TTITLE12=Hermanos Quintero - Duele duele
TTITLE13=Panama Conneciton - La gota fria
TTITLE14=Benny Peregrina - El malecon
TTITLE15=Eddy Mclean - Te compro tu novia
TTITLE16=Paco Clavel - Voy a pintar las paredes con tu no nombre
TTITLE17=Papi Bass - Bailando
TTITLE18=Panama Connection - Caballo viejo
TTITLE19=Celia Cruz - Burundanga
EXTD=
EXTT0=
EXTT1=
EXTT2=
EXTT3=
EXTT4=
EXTT5=
EXTT6=
EXTT7=
EXTT8=
EXTT9=
EXTT10=
EXTT11=
EXTT12=
EXTT13=
EXTT14=
EXTT15=
EXTT16=
EXTT17=
EXTT18=
EXTT19=
PLAYORDER=
